<svg width="20" height="20" viewBox="0 0 20 20" fill="none" xmlns="http://www.w3.org/2000/svg">
<path d="M9.99995 16.8002C6.23995 16.8002 3.19995 13.7602 3.19995 10.0002C3.19995 6.2402 6.23995 3.2002 9.99995 3.2002C13.76 3.2002 16.8 6.2402 16.8 10.0002C16.8 13.7602 13.76 16.8002 9.99995 16.8002ZM9.99995 4.0002C6.67995 4.0002 3.99995 6.6802 3.99995 10.0002C3.99995 13.3202 6.67995 16.0002 9.99995 16.0002C13.32 16.0002 16 13.3202 16 10.0002C16 6.6802 13.32 4.0002 9.99995 4.0002Z" fill="#EB5757"/>
<path d="M9.6001 12.7998H10.4001V13.5998H9.6001V12.7998Z" fill="#EB5757"/>
<path d="M10.2401 11.9999H9.7601L9.6001 8.7999V6.3999H10.4001V8.7999L10.2401 11.9999Z" fill="#EB5757"/>
</svg>
