<svg width="216" height="221" viewBox="0 0 216 221" fill="none" xmlns="http://www.w3.org/2000/svg">
<path d="M198.607 30.1619C159.485 23.1444 143.311 17.9469 108 2C72.6892 17.9469 56.5148 23.1444 17.3934 30.1619C10.3058 142.494 101.254 181.283 108 184C114.746 181.283 205.694 142.494 198.607 30.1619Z" fill="#203E5C" stroke="#B2947B" stroke-width="4" stroke-linecap="round" stroke-linejoin="round"/>
<path d="M78.2772 89.6133C78.6525 89.6211 79.0206 89.7177 79.3511 89.8951C79.6816 90.0725 79.965 90.3256 80.1781 90.6337L82.0351 88.9793C81.6042 88.4184 81.0385 87.9747 80.3901 87.6893C79.6754 87.3809 78.9024 87.2292 78.1237 87.2447C77.2603 87.2302 76.4065 87.4279 75.638 87.8205C74.9179 88.1875 74.3152 88.7479 73.8979 89.4384C73.4862 90.1538 73.2695 90.9641 73.2695 91.7888C73.2695 92.6135 73.4862 93.4239 73.8979 94.1392C74.3152 94.8298 74.9179 95.3902 75.638 95.7572C76.4077 96.1464 77.2606 96.3439 78.1237 96.3329C78.9029 96.3461 79.6759 96.192 80.3901 95.8811C81.0415 95.6007 81.6084 95.1561 82.0351 94.5911L80.1781 92.944C79.9646 93.2511 79.6809 93.5032 79.3504 93.6793C79.0198 93.8555 78.652 93.9507 78.2772 93.957C78.0064 93.9651 77.7368 93.9175 77.4853 93.8172C77.2337 93.7168 77.0056 93.566 76.815 93.374C76.4512 92.9253 76.2527 92.3658 76.2527 91.7888C76.2527 91.2119 76.4512 90.6524 76.815 90.2037C77.0041 90.0093 77.2319 89.8564 77.4836 89.7547C77.7354 89.6531 78.0057 89.6049 78.2772 89.6133Z" fill="#B2947B"/>
<path d="M90.6323 92.3524C90.9167 91.8341 91.0602 91.2508 91.0487 90.6601C91.0371 90.0695 90.8709 89.4922 90.5665 88.9853C90.2299 88.4776 89.7487 88.0816 89.1847 87.8484C88.5191 87.5681 87.8015 87.4315 87.0792 87.4476H82.9119V96.1349H85.8363V93.9485H86.6332L88.0954 96.1349H91.2318L89.4041 93.4529C89.907 93.2054 90.332 92.8247 90.6323 92.3524ZM87.7883 91.4778C87.534 91.6732 87.2167 91.7691 86.8964 91.7475H85.8363V89.7069H86.911C87.2317 89.6817 87.5502 89.778 87.8029 89.9765C87.9017 90.07 87.9794 90.1833 88.0311 90.3089C88.0827 90.4345 88.1071 90.5696 88.1027 90.7053C88.1101 90.8481 88.0858 90.9907 88.0315 91.123C87.9771 91.2553 87.8941 91.374 87.7883 91.4706V91.4778Z" fill="#B2947B"/>
<path d="M99.2591 87.8269C98.4714 87.4431 97.6062 87.2437 96.7294 87.2437C95.8527 87.2437 94.9875 87.4431 94.1998 87.8269C93.6579 88.1134 93.1798 88.5064 92.7945 88.9822C92.4091 89.458 92.1245 90.0067 91.9578 90.5952C91.791 91.1837 91.7457 91.7998 91.8244 92.4063C91.9032 93.0127 92.1044 93.597 92.4159 94.1237C92.8406 94.8153 93.4475 95.3775 94.1706 95.749C94.9583 96.1327 95.8235 96.3322 96.7002 96.3322C97.5769 96.3322 98.4421 96.1327 99.2298 95.749C99.9528 95.3775 100.56 94.8153 100.984 94.1237C101.308 93.6015 101.519 93.0184 101.606 92.4108C101.692 91.8033 101.652 91.1844 101.487 90.5932C101.322 90.0019 101.037 89.451 100.648 88.9749C100.26 88.4989 99.777 88.108 99.2298 87.8269H99.2591ZM98.4256 92.9285C98.2518 93.2323 97.9993 93.484 97.6945 93.6573C97.3931 93.8332 97.0494 93.9239 96.7002 93.9197C96.3532 93.9248 96.0116 93.8339 95.7132 93.6573C95.4069 93.4861 95.1539 93.2339 94.9821 92.9285C94.8091 92.5704 94.7193 92.1781 94.7193 91.7806C94.7193 91.3832 94.8091 90.9909 94.9821 90.6328C95.152 90.326 95.4055 90.0733 95.7132 89.904C96.0096 89.7219 96.3521 89.6283 96.7002 89.6343C97.0505 89.6293 97.3951 89.7228 97.6945 89.904C98.0006 90.0755 98.2535 90.3276 98.4256 90.6328C98.5986 90.9909 98.6884 91.3832 98.6884 91.7806C98.6884 92.1781 98.5986 92.5704 98.4256 92.9285Z" fill="#B2947B"/>
<path d="M107.382 89.6118C107.757 89.6202 108.125 89.717 108.455 89.8943C108.786 90.0717 109.069 90.3245 109.283 90.6321L111.14 88.9777C110.709 88.4168 110.143 87.9732 109.495 87.6877C108.78 87.38 108.007 87.2284 107.228 87.2432C106.365 87.2286 105.511 87.4264 104.742 87.8189C104.021 88.1836 103.418 88.7446 103.002 89.4369C102.591 90.1522 102.374 90.9625 102.374 91.7873C102.374 92.612 102.591 93.4223 103.002 94.1377C103.418 94.8299 104.021 95.3909 104.742 95.7556C105.512 96.1448 106.365 96.3424 107.228 96.3314C108.007 96.3439 108.78 96.1898 109.495 95.8795C110.146 95.5991 110.713 95.1546 111.14 94.5895L109.283 92.9424C109.069 93.2491 108.785 93.5009 108.454 93.677C108.124 93.8531 107.756 93.9485 107.382 93.9555C107.111 93.9635 106.841 93.9159 106.59 93.8156C106.338 93.7153 106.11 93.5644 105.92 93.3724C105.556 92.9237 105.357 92.3642 105.357 91.7873C105.357 91.2103 105.556 90.6508 105.92 90.2021C106.109 90.0077 106.336 89.8548 106.588 89.7531C106.84 89.6515 107.11 89.6034 107.382 89.6118Z" fill="#B2947B"/>
<path d="M118.897 87.8277C118.11 87.4441 117.246 87.2446 116.371 87.2446C115.495 87.2446 114.631 87.4441 113.845 87.8277C113.305 88.1168 112.83 88.5117 112.447 88.9886C112.065 89.4655 111.783 90.0147 111.619 90.603C111.456 91.1912 111.413 91.8065 111.494 92.4117C111.574 93.0169 111.777 93.5996 112.09 94.1246C112.515 94.8162 113.122 95.3783 113.845 95.7498C114.631 96.1335 115.495 96.3329 116.371 96.3329C117.246 96.3329 118.11 96.1335 118.897 95.7498C119.627 95.3779 120.238 94.8092 120.661 94.1084C121.083 93.4076 121.3 92.6027 121.287 91.7851C121.299 90.96 121.082 90.1476 120.658 89.4384C120.232 88.7492 119.622 88.1916 118.897 87.8277ZM118.063 92.9294C117.889 93.2332 117.637 93.4849 117.332 93.6582C117.034 93.8348 116.692 93.9256 116.345 93.9205C115.996 93.9254 115.652 93.8347 115.351 93.6582C115.046 93.4849 114.793 93.2332 114.62 92.9294C114.447 92.5713 114.357 92.1789 114.357 91.7815C114.357 91.384 114.447 90.9917 114.62 90.6336C114.792 90.3285 115.045 90.0764 115.351 89.9048C115.65 89.7229 115.995 89.6293 116.345 89.6352C116.693 89.6291 117.036 89.7227 117.332 89.9048C117.638 90.0764 117.891 90.3285 118.063 90.6336C118.236 90.9917 118.326 91.384 118.326 91.7815C118.326 92.1789 118.236 92.5713 118.063 92.9294Z" fill="#B2947B"/>
<path d="M130.235 90.8079C130.44 90.4804 130.547 90.1009 130.542 89.7147C130.546 89.3862 130.466 89.062 130.31 88.7726C130.154 88.4832 129.927 88.2381 129.65 88.0603C128.854 87.5972 127.938 87.3814 127.018 87.4408H122.39V96.1354H127.296C128.251 96.1939 129.203 95.9763 130.037 95.5087C130.336 95.3209 130.58 95.0588 130.745 94.7481C130.911 94.4375 130.992 94.0892 130.981 93.7377C130.995 93.2625 130.846 92.7966 130.557 92.4185C130.235 92.0422 129.811 91.7664 129.336 91.6241C129.707 91.442 130.018 91.159 130.235 90.8079ZM125.249 89.4887H126.616C127.259 89.4887 127.581 89.7074 127.581 90.1374C127.581 90.5674 127.259 90.7787 126.616 90.7787H125.249V89.4887ZM127.018 94.0802H125.249V92.7173H127.018C127.669 92.7173 127.99 92.9433 127.99 93.4024C127.99 93.8616 127.669 94.0802 127.018 94.0802Z" fill="#B2947B"/>
<path d="M134.93 87.4395H131.991V96.1268H134.93V87.4395Z" fill="#B2947B"/>
<path d="M141.182 96.1341V89.7133H143.734V87.4395H135.691V89.7133H138.243V96.1341H141.182Z" fill="#B2947B"/>
<path d="M164.465 103.241C164.59 102.979 164.714 102.709 164.824 102.439C166.956 97.4259 167.538 91.8921 166.496 86.5466C165.454 81.2011 162.835 76.2874 158.975 72.4346C158.514 71.9754 158.039 71.5309 157.549 71.1082C159.73 74.3552 160.984 78.1319 161.178 82.0345C161.373 85.9371 160.5 89.819 158.653 93.2655C156.806 96.712 154.055 99.5935 150.692 101.602C147.33 103.611 143.484 104.671 139.564 104.67H139.206C134.899 104.667 130.713 106.086 127.302 108.707C123.891 111.327 121.446 114.999 120.351 119.151H139.535C143.209 119.146 146.844 118.402 150.223 116.965C151.1 116.596 151.956 116.182 152.79 115.726C153.072 116.705 153.666 117.565 154.483 118.178C155.299 118.791 156.293 119.122 157.315 119.122H162.433C162.707 119.12 162.981 119.096 163.252 119.049C162.041 118.35 161.076 117.297 160.488 116.032C161.903 115.864 163.239 115.291 164.333 114.382C165.428 113.472 166.234 112.266 166.654 110.909C167.075 109.551 167.091 108.102 166.701 106.736C166.311 105.369 165.532 104.145 164.458 103.212L164.465 103.241Z" fill="#B2947B"/>
<path d="M56.8524 107.46L56.2979 108.092L57.1176 108.277C57.8022 108.433 58.4639 108.674 59.0869 108.995C59.1078 109.065 59.133 109.152 59.1602 109.253C59.2349 109.529 59.3227 109.903 59.3788 110.298C59.4355 110.697 59.4562 111.095 59.4105 111.429C59.396 111.535 59.3759 111.627 59.3512 111.708C59.0198 111.41 58.6965 111.103 58.3808 110.784L58.3782 110.781C54.5883 106.999 52.0175 102.175 50.9946 96.9273C49.9717 91.6798 50.5433 86.2474 52.6363 81.3257L52.6368 81.3246C52.7235 81.1194 52.8135 80.92 52.9075 80.7119C52.9372 80.646 52.9674 80.5793 52.9979 80.5112L53.1501 80.1721L52.8692 79.9286C51.8662 79.0595 51.1382 77.919 50.7733 76.6456C50.4084 75.3723 50.4223 74.0207 50.8132 72.7551C51.2042 71.4894 51.9556 70.364 52.9762 69.5155C53.9969 68.6671 55.243 68.1322 56.5631 67.9761L57.2507 67.8947L56.9572 67.2676C56.537 66.3698 55.9398 65.5719 55.2066 64.9185H59.7065C59.7065 64.9185 59.7066 64.9185 59.7066 64.9185C60.6248 64.9186 61.5177 65.218 62.2491 65.7707C62.9805 66.3234 63.5103 67.0991 63.7581 67.9794L63.9286 68.5849L64.48 68.2822C65.2947 67.8351 66.1328 67.4317 66.9908 67.0737L66.9908 67.0737L66.9945 67.0721C70.3105 65.6575 73.8797 64.9274 77.4867 64.9258C81.7363 64.9329 85.8689 66.3131 89.2648 68.8591C92.6313 71.383 95.0939 74.9177 96.2914 78.9408C96.2906 78.9424 96.2898 78.944 96.289 78.9457C96.2735 78.9764 96.2446 79.0191 96.1949 79.072C96.0934 79.1801 95.9422 79.2922 95.7664 79.3979C95.5944 79.5013 95.4191 79.5867 95.2848 79.6467C95.2696 79.6535 95.2551 79.6599 95.2412 79.666C94.8269 79.4888 94.4568 79.2214 94.1585 78.8828L93.6752 78.3341L93.3392 78.9835C93.2931 79.0725 93.1979 79.1847 93.0461 79.3103C92.8987 79.4323 92.7225 79.5467 92.5464 79.6468C92.3716 79.7462 92.2056 79.8266 92.083 79.8822C92.0778 79.8845 92.0727 79.8868 92.0677 79.8891C92.0614 79.8864 92.055 79.8836 92.0484 79.8808C91.9229 79.8262 91.7535 79.7469 91.5762 79.6478C91.3974 79.5478 91.2206 79.4333 91.0748 79.3103C90.9249 79.1838 90.8349 79.0711 90.7938 78.9819L90.4917 78.3272L89.9844 78.8397C89.5394 79.2893 89.0101 79.6465 88.4271 79.8914C87.9181 79.6725 87.4451 79.3775 87.0248 79.0163L86.6932 78.7313L86.3666 79.0219C85.8637 79.4692 85.2915 79.8316 84.6724 80.0952C84.0091 79.8158 83.4036 79.4151 82.8875 78.9132L82.5294 78.5648L82.1808 78.9227C81.5936 79.5254 80.8893 80.0017 80.1116 80.3228C79.334 80.0017 78.6297 79.5254 78.0425 78.9227L77.6637 78.5338L77.3072 78.9433C76.7683 79.5626 76.1309 80.0887 75.421 80.501C74.5464 80.2624 73.7278 79.8519 73.0137 79.2932L72.3982 78.8117L72.2189 79.5723C72.1053 80.0542 71.7173 80.6278 71.3027 81.1191C71.1031 81.3556 70.9113 81.557 70.7694 81.6993C70.7376 81.7311 70.7084 81.7599 70.6823 81.7854C70.6394 81.784 70.5902 81.7821 70.5356 81.7795C70.3203 81.7692 70.0241 81.7477 69.7001 81.7033C69.0215 81.6103 68.335 81.4305 67.9563 81.1313L67.3468 80.6497L67.1609 81.4039C66.9492 82.2625 66.5714 83.0711 66.0492 83.7845C65.1655 83.9299 64.2611 83.9004 63.3879 83.6968L62.7512 83.5484L62.7747 84.2017C62.8079 85.1238 62.6455 86.0419 62.2991 86.8961C61.5099 87.2304 60.6665 87.4214 59.8087 87.4594L59.5339 87.4716L59.4126 87.6832C59.4084 87.6879 59.4028 87.694 59.3975 87.7C59.3835 87.7159 59.349 87.7552 59.3178 87.8073C59.2867 87.8592 59.2358 87.9608 59.2358 88.0974V88.161L59.2517 88.2225C59.4685 89.0613 59.5256 89.9326 59.4209 90.7913C58.7724 91.2978 58.0433 91.6933 57.2633 91.9609L56.6821 92.1602L56.9954 92.6887C57.4641 93.4794 57.7604 94.3588 57.8661 95.2695C57.3101 95.9827 56.6154 96.5776 55.8228 97.0182L55.1356 97.4002L55.7729 97.8606C56.1743 98.1505 56.5555 98.7325 56.8508 99.3086C56.9928 99.5857 57.1054 99.8422 57.1825 100.029C57.2006 100.073 57.2166 100.113 57.2306 100.149C56.8682 100.971 56.3434 101.714 55.6866 102.331L55.2001 102.788L55.776 103.127C56.5662 103.59 57.2502 104.213 57.7854 104.953C57.7794 104.988 57.7724 105.028 57.7644 105.072C57.7288 105.266 57.6731 105.535 57.5935 105.83C57.4282 106.443 57.1811 107.085 56.8524 107.46ZM59.4246 87.67L59.4242 87.6703L59.4246 87.67Z" stroke="#B2947B"/>
<path d="M158.421 83.5561C159.576 82.9949 160.198 80.466 160.198 80.466C160.198 80.466 158.977 78.1848 157.719 77.9224C158.582 76.9823 158.326 74.4533 158.326 74.4533C158.326 74.4533 156.776 73.0467 155.54 72.8791C156.052 71.7276 155.146 69.4391 155.146 69.4391C155.146 69.4391 152.791 68.3022 151.636 68.7978C152.155 67.5807 150.335 65.2995 150.335 65.2995C150.335 65.2995 147.82 64.8841 146.826 65.6785C146.614 64.4323 144.596 63.0257 144.596 63.0257C144.596 63.0257 142.147 63.3245 141.372 64.3302C140.926 63.1423 138.674 62.1438 138.674 62.1438C138.674 62.1438 136.122 62.9674 135.698 64.1845C135.194 63.0257 132.891 62.1438 132.891 62.1438C132.891 62.1438 130.486 63.0621 130.047 64.2573C129.744 63.2968 129.137 62.46 128.317 61.8728C127.497 61.2856 126.507 60.9797 125.498 61.001C124.488 61.0224 123.512 61.3699 122.718 61.9913C121.923 62.6126 121.352 63.4743 121.091 64.4468H99.2382C99.2382 63.9385 99.0356 63.4509 98.675 63.0915C98.3144 62.732 97.8254 62.5301 97.3154 62.5301C96.8054 62.5301 96.3164 62.732 95.9558 63.0915C95.5952 63.4509 95.3926 63.9385 95.3926 64.4468C95.3887 67.0297 95.9974 69.5769 97.1692 71.8806C97.6721 72.8867 98.3792 73.7776 99.2455 74.4971C99.9938 73.8669 100.627 73.1124 101.117 72.2669C101.609 73.1136 102.244 73.8682 102.996 74.4971C103.737 73.8658 104.363 73.1112 104.846 72.2669C105.337 73.1136 105.973 73.8682 106.725 74.4971C107.475 73.8691 108.109 73.1142 108.596 72.2669C109.088 73.1136 109.724 73.8682 110.475 74.4971C111.227 73.8682 111.863 73.1136 112.354 72.2669C112.846 73.1136 113.481 73.8682 114.233 74.4971C114.984 73.8691 115.617 73.1142 116.105 72.2669C116.603 73.1153 117.246 73.8701 118.006 74.4971C118.722 73.8966 119.335 73.1825 119.819 72.3835C120.215 72.5733 120.534 72.8926 120.723 73.2884C120.912 73.6842 120.959 74.1325 120.856 74.5586C120.753 74.9848 120.507 75.363 120.159 75.6303C119.811 75.8975 119.381 76.0378 118.941 76.0275H100.145C101.677 77.5786 103.504 78.8098 105.518 79.6495C107.533 80.4891 109.695 80.9203 111.879 80.9178H134.653C136.621 80.9214 138.525 80.2205 140.019 78.9428H140.063C140.028 80.089 139.7 81.2073 139.108 82.1909C138.517 83.1746 137.683 83.9909 136.685 84.5618C136.955 84.6116 137.229 84.636 137.504 84.6347H142.622C143.619 84.6345 144.59 84.319 145.395 83.7335C146.2 83.1481 146.799 82.323 147.103 81.377C149.647 83.2051 151.436 85.8943 152.136 88.9417C152.836 91.9891 152.398 95.1862 150.905 97.9354C151.965 98.81 154.678 97.2795 154.678 97.2795C155.018 96.282 155.133 95.2217 155.014 94.1748C156.279 94.1748 158.055 92.5933 158.055 92.5933C158.055 92.5933 158.311 90.057 157.449 89.1242C158.713 88.9055 160.015 86.6389 160.015 86.6389C160.015 86.6389 159.496 84.2266 158.421 83.5561ZM125.587 67.2236C125.279 67.2236 124.978 67.1325 124.722 66.962C124.466 66.7914 124.266 66.5489 124.148 66.2653C124.031 65.9816 124 65.6695 124.06 65.3684C124.12 65.0672 124.268 64.7906 124.486 64.5735C124.704 64.3564 124.981 64.2086 125.283 64.1487C125.585 64.0888 125.899 64.1195 126.183 64.237C126.468 64.3545 126.711 64.5535 126.882 64.8088C127.053 65.0641 127.144 65.3642 127.144 65.6712C127.144 66.0829 126.98 66.4778 126.688 66.7689C126.396 67.06 126 67.2236 125.587 67.2236Z" fill="#B2947B"/>
<path d="M77.4751 119.545C78.8729 120.559 80.5629 121.108 82.3035 121.104H105.121C107.305 121.106 109.467 120.675 111.482 119.835C113.275 119.088 114.919 118.031 116.339 116.714L77.4751 119.545ZM77.4751 119.545C77.4511 119.388 77.4331 119.229 77.4212 119.07L76.9226 119.107L76.5952 119.485C76.7321 119.603 76.8723 119.717 77.0156 119.826C77.1701 120.664 77.4829 121.466 77.9396 122.191C78.3855 122.898 78.9582 123.514 79.6269 124.01C79.5729 124.013 79.5188 124.014 79.4646 124.015L77.4751 119.545ZM121.108 104.647V104.957L121.134 104.97C121.09 107.366 120.503 109.722 119.415 111.862L119.413 111.865C119.005 112.681 118.453 113.417 117.786 114.038C117.22 113.507 116.734 112.896 116.345 112.224L115.913 111.478L115.48 112.224C115.089 112.897 114.602 113.508 114.033 114.038C113.465 113.508 112.977 112.897 112.587 112.224L112.157 111.483L111.723 112.222C111.327 112.897 110.832 113.51 110.256 114.04C109.688 113.51 109.203 112.899 108.815 112.225L108.384 111.476L107.949 112.224C107.559 112.897 107.071 113.508 106.503 114.038C105.935 113.508 105.447 112.897 105.056 112.224L104.624 111.479L104.192 112.224C103.801 112.897 103.314 113.508 102.745 114.038C102.179 113.509 101.694 112.898 101.307 112.225L100.875 111.476L100.441 112.224C100.051 112.896 99.5634 113.507 98.9953 114.037C98.4537 113.53 97.9849 112.949 97.6029 112.312L97.3688 111.922L96.9582 112.119C96.459 112.358 96.0568 112.76 95.8187 113.259C95.5807 113.758 95.5213 114.324 95.6508 114.862C95.7802 115.399 96.0905 115.876 96.5295 116.213C96.9668 116.548 97.5057 116.725 98.0569 116.714H115.59C114.31 117.821 112.859 118.72 111.289 119.374C109.336 120.188 107.239 120.606 105.122 120.604H105.121H82.3035H82.3022C80.4458 120.608 78.6509 119.942 77.2499 118.729L76.3338 117.936L76.424 119.144C76.5117 120.321 76.8869 121.458 77.5166 122.457C77.8829 123.038 78.3288 123.562 78.8394 124.015H74.3491C73.7966 124.015 73.2496 123.906 72.7394 123.695C72.2292 123.484 71.7658 123.175 71.3757 122.786C70.9856 122.396 70.6764 121.934 70.4658 121.425C70.2552 120.917 70.1472 120.372 70.1481 119.822V119.821V117.416V117.094L69.8552 116.961C66.9911 115.658 64.5151 113.636 62.6689 111.094C60.8226 108.553 59.6691 105.577 59.3208 102.459C58.9725 99.34 59.4412 96.1847 60.6814 93.3005C61.6346 91.0834 63.0187 89.0848 64.7463 87.4161C64.2359 88.8912 63.9864 90.4496 64.0152 92.0214C64.0579 94.3453 64.7075 96.6179 65.8997 98.6151C67.092 100.612 68.7858 102.265 70.8138 103.41C72.8417 104.556 75.1339 105.154 77.4645 105.147C77.4647 105.147 77.4649 105.147 77.4651 105.147L84.5041 105.147H85.6008H86.0833H86.9021H87.2849L87.3848 104.778C87.6233 103.896 88.1469 103.116 88.8751 102.56C89.6033 102.003 90.4953 101.702 91.413 101.702C92.3308 101.702 93.2228 102.003 93.951 102.56C94.6791 103.116 95.2028 103.896 95.4412 104.778L95.5411 105.147H95.9239H117.762H118.262V104.647C118.262 104.272 118.411 103.912 118.678 103.646C118.945 103.38 119.307 103.231 119.685 103.231C120.063 103.231 120.425 103.38 120.691 103.646C120.958 103.912 121.108 104.272 121.108 104.647ZM116.141 116.214H98.0514H116.141ZM90.2707 107.586C90.609 107.811 91.0065 107.931 91.413 107.931C91.683 107.931 91.9503 107.878 92.1998 107.775C92.4493 107.672 92.6761 107.521 92.8672 107.331C93.0583 107.14 93.2099 106.914 93.3135 106.665C93.417 106.416 93.4703 106.149 93.4703 105.879C93.4703 105.473 93.3494 105.076 93.1232 104.738C92.8969 104.401 92.5755 104.138 92.1998 103.983C91.8241 103.828 91.4107 103.787 91.012 103.866C90.6132 103.945 90.2467 104.14 89.9589 104.427C89.6711 104.714 89.4749 105.08 89.3954 105.478C89.3159 105.877 89.3567 106.29 89.5126 106.665C89.6685 107.04 89.9324 107.361 90.2707 107.586Z" stroke="#B2947B"/>
<path d="M72.2198 194.2L64.4338 218H58.5178L53.2818 201.884L47.8758 218H41.9938L34.1738 194.2H39.8858L45.2578 210.928L50.8678 194.2H55.9678L61.4078 211.064L66.9498 194.2H72.2198ZM90.1718 212.9H79.1218L77.0138 218H71.3698L81.9778 194.2H87.4178L98.0598 218H92.2798L90.1718 212.9ZM88.4378 208.718L84.6638 199.606L80.8898 208.718H88.4378ZM100.529 194.2H106.037V213.512H117.971V218H100.529V194.2ZM121.049 194.2H126.557V213.512H138.491V218H121.049V194.2ZM159.996 213.58V218H141.568V194.2H159.554V198.62H147.042V203.788H158.092V208.072H147.042V213.58H159.996ZM169.309 198.688H161.693V194.2H182.433V198.688H174.817V218H169.309V198.688Z" fill="#B2947B"/>
</svg>
