<svg width="360" height="640" viewBox="0 0 360 640" fill="none" xmlns="http://www.w3.org/2000/svg">
<g filter="url(#filter0_d)">
<rect width="360" height="640" fill="#122D46"/>
</g>
<path d="M270.607 96.1619C231.485 89.1444 215.311 83.9469 180 68C144.689 83.9469 128.515 89.1444 89.3934 96.1619C82.3058 208.494 173.254 247.283 180 250C186.746 247.283 277.694 208.494 270.607 96.1619Z" fill="#122D46" stroke="#B2947B" stroke-width="4" stroke-linecap="round" stroke-linejoin="round"/>
<path d="M150.277 155.613C150.653 155.621 151.021 155.718 151.351 155.895C151.682 156.072 151.965 156.326 152.178 156.634L154.035 154.979C153.604 154.418 153.038 153.975 152.39 153.689C151.675 153.381 150.902 153.229 150.124 153.245C149.26 153.23 148.407 153.428 147.638 153.82C146.918 154.187 146.315 154.748 145.898 155.438C145.486 156.154 145.27 156.964 145.27 157.789C145.27 158.614 145.486 159.424 145.898 160.139C146.315 160.83 146.918 161.39 147.638 161.757C148.408 162.146 149.261 162.344 150.124 162.333C150.903 162.346 151.676 162.192 152.39 161.881C153.041 161.601 153.608 161.156 154.035 160.591L152.178 158.944C151.965 159.251 151.681 159.503 151.35 159.679C151.02 159.855 150.652 159.951 150.277 159.957C150.006 159.965 149.737 159.917 149.485 159.817C149.234 159.717 149.006 159.566 148.815 159.374C148.451 158.925 148.253 158.366 148.253 157.789C148.253 157.212 148.451 156.652 148.815 156.204C149.004 156.009 149.232 155.856 149.484 155.755C149.735 155.653 150.006 155.605 150.277 155.613Z" fill="#B2947B"/>
<path d="M162.632 158.352C162.917 157.834 163.06 157.251 163.049 156.66C163.037 156.07 162.871 155.492 162.567 154.985C162.23 154.478 161.749 154.082 161.185 153.848C160.519 153.568 159.802 153.432 159.079 153.448H154.912V162.135H157.836V159.948H158.633L160.095 162.135H163.232L161.404 159.453C161.907 159.205 162.332 158.825 162.632 158.352ZM159.788 157.478C159.534 157.673 159.217 157.769 158.896 157.748H157.836V155.707H158.911C159.232 155.682 159.55 155.778 159.803 155.977C159.902 156.07 159.979 156.183 160.031 156.309C160.083 156.435 160.107 156.57 160.103 156.705C160.11 156.848 160.086 156.991 160.031 157.123C159.977 157.255 159.894 157.374 159.788 157.471V157.478Z" fill="#B2947B"/>
<path d="M171.259 153.827C170.471 153.443 169.606 153.244 168.729 153.244C167.853 153.244 166.988 153.443 166.2 153.827C165.658 154.113 165.18 154.506 164.794 154.982C164.409 155.458 164.124 156.007 163.958 156.595C163.791 157.184 163.746 157.8 163.824 158.406C163.903 159.013 164.104 159.597 164.416 160.124C164.841 160.815 165.448 161.377 166.171 161.749C166.958 162.133 167.823 162.332 168.7 162.332C169.577 162.332 170.442 162.133 171.23 161.749C171.953 161.377 172.56 160.815 172.984 160.124C173.308 159.602 173.519 159.018 173.606 158.411C173.692 157.803 173.652 157.184 173.487 156.593C173.322 156.002 173.037 155.451 172.648 154.975C172.26 154.499 171.777 154.108 171.23 153.827H171.259ZM170.426 158.929C170.252 159.232 169.999 159.484 169.694 159.657C169.393 159.833 169.049 159.924 168.7 159.92C168.353 159.925 168.012 159.834 167.713 159.657C167.407 159.486 167.154 159.234 166.982 158.929C166.809 158.57 166.719 158.178 166.719 157.781C166.719 157.383 166.809 156.991 166.982 156.633C167.152 156.326 167.405 156.073 167.713 155.904C168.01 155.722 168.352 155.628 168.7 155.634C169.05 155.629 169.395 155.723 169.694 155.904C170.001 156.076 170.254 156.328 170.426 156.633C170.599 156.991 170.688 157.383 170.688 157.781C170.688 158.178 170.599 158.57 170.426 158.929Z" fill="#B2947B"/>
<path d="M179.382 155.612C179.757 155.62 180.125 155.717 180.455 155.894C180.786 156.072 181.069 156.324 181.283 156.632L183.14 154.978C182.709 154.417 182.143 153.973 181.495 153.688C180.78 153.38 180.007 153.228 179.228 153.243C178.365 153.229 177.511 153.426 176.742 153.819C176.021 154.184 175.418 154.745 175.002 155.437C174.591 156.152 174.374 156.963 174.374 157.787C174.374 158.612 174.591 159.422 175.002 160.138C175.418 160.83 176.021 161.391 176.742 161.756C177.512 162.145 178.365 162.342 179.228 162.331C180.007 162.344 180.78 162.19 181.495 161.88C182.146 161.599 182.713 161.155 183.14 160.59L181.283 158.942C181.069 159.249 180.785 159.501 180.454 159.677C180.124 159.853 179.756 159.949 179.382 159.955C179.111 159.964 178.841 159.916 178.59 159.816C178.338 159.715 178.11 159.564 177.92 159.372C177.556 158.924 177.357 158.364 177.357 157.787C177.357 157.21 177.556 156.651 177.92 156.202C178.109 156.008 178.336 155.855 178.588 155.753C178.84 155.651 179.11 155.603 179.382 155.612Z" fill="#B2947B"/>
<path d="M190.897 153.828C190.11 153.444 189.246 153.245 188.371 153.245C187.495 153.245 186.631 153.444 185.845 153.828C185.305 154.117 184.83 154.512 184.447 154.989C184.065 155.466 183.783 156.015 183.619 156.603C183.456 157.191 183.413 157.806 183.494 158.412C183.574 159.017 183.777 159.6 184.09 160.125C184.515 160.816 185.122 161.378 185.845 161.75C186.631 162.133 187.495 162.333 188.371 162.333C189.246 162.333 190.11 162.133 190.897 161.75C191.627 161.378 192.238 160.809 192.661 160.108C193.083 159.408 193.3 158.603 193.287 157.785C193.299 156.96 193.082 156.148 192.658 155.438C192.232 154.749 191.622 154.192 190.897 153.828ZM190.063 158.929C189.889 159.233 189.637 159.485 189.332 159.658C189.034 159.835 188.692 159.926 188.345 159.921C187.996 159.925 187.652 159.835 187.351 159.658C187.046 159.485 186.793 159.233 186.62 158.929C186.447 158.571 186.357 158.179 186.357 157.781C186.357 157.384 186.447 156.992 186.62 156.634C186.792 156.328 187.045 156.076 187.351 155.905C187.65 155.723 187.995 155.629 188.345 155.635C188.693 155.629 189.036 155.723 189.332 155.905C189.638 156.076 189.891 156.328 190.063 156.634C190.236 156.992 190.326 157.384 190.326 157.781C190.326 158.179 190.236 158.571 190.063 158.929Z" fill="#B2947B"/>
<path d="M202.235 156.808C202.44 156.48 202.547 156.101 202.542 155.715C202.546 155.386 202.466 155.062 202.31 154.773C202.154 154.483 201.927 154.238 201.65 154.06C200.854 153.597 199.938 153.381 199.018 153.441H194.39V162.135H199.296C200.251 162.194 201.203 161.976 202.037 161.509C202.336 161.321 202.58 161.059 202.745 160.748C202.911 160.437 202.992 160.089 202.981 159.738C202.995 159.262 202.846 158.797 202.557 158.419C202.235 158.042 201.811 157.766 201.336 157.624C201.707 157.442 202.018 157.159 202.235 156.808ZM197.249 155.489H198.616C199.259 155.489 199.581 155.707 199.581 156.137C199.581 156.567 199.259 156.779 198.616 156.779H197.249V155.489ZM199.018 160.08H197.249V158.717H199.018C199.669 158.717 199.99 158.943 199.99 159.402C199.99 159.862 199.669 160.08 199.018 160.08Z" fill="#B2947B"/>
<path d="M206.93 153.439H203.991V162.127H206.93V153.439Z" fill="#B2947B"/>
<path d="M213.182 162.134V155.713H215.734V153.439H207.691V155.713H210.243V162.134H213.182Z" fill="#B2947B"/>
<path d="M236.465 169.241C236.59 168.979 236.714 168.709 236.824 168.439C238.956 163.426 239.538 157.892 238.496 152.547C237.454 147.201 234.835 142.287 230.975 138.435C230.514 137.975 230.039 137.531 229.549 137.108C231.73 140.355 232.984 144.132 233.178 148.034C233.373 151.937 232.5 155.819 230.653 159.266C228.806 162.712 226.055 165.594 222.692 167.602C219.33 169.611 215.484 170.671 211.564 170.67H211.206C206.899 170.667 202.713 172.086 199.302 174.707C195.891 177.327 193.446 180.999 192.351 185.151H211.535C215.209 185.146 218.844 184.402 222.223 182.965C223.1 182.596 223.956 182.182 224.79 181.726C225.072 182.705 225.666 183.565 226.483 184.178C227.299 184.791 228.293 185.122 229.315 185.122H234.433C234.707 185.12 234.981 185.096 235.252 185.049C234.041 184.35 233.076 183.297 232.488 182.032C233.903 181.864 235.239 181.291 236.333 180.382C237.428 179.472 238.234 178.266 238.654 176.909C239.075 175.551 239.091 174.102 238.701 172.736C238.311 171.369 237.532 170.145 236.458 169.212L236.465 169.241Z" fill="#B2947B"/>
<path d="M128.852 173.46L128.298 174.092L129.118 174.277C129.802 174.433 130.464 174.674 131.087 174.995C131.108 175.065 131.133 175.152 131.16 175.253C131.235 175.529 131.323 175.903 131.379 176.298C131.435 176.697 131.456 177.095 131.411 177.429C131.396 177.535 131.376 177.627 131.351 177.708C131.02 177.41 130.696 177.103 130.381 176.784L130.378 176.781C126.588 172.999 124.017 168.175 122.995 162.927C121.972 157.68 122.543 152.247 124.636 147.326L124.637 147.325C124.723 147.119 124.814 146.92 124.907 146.712C124.937 146.646 124.967 146.579 124.998 146.511L125.15 146.172L124.869 145.929C123.866 145.06 123.138 143.919 122.773 142.646C122.408 141.372 122.422 140.021 122.813 138.755C123.204 137.489 123.956 136.364 124.976 135.516C125.997 134.667 127.243 134.132 128.563 133.976L129.251 133.895L128.957 133.268C128.537 132.37 127.94 131.572 127.207 130.919H131.707C131.707 130.919 131.707 130.919 131.707 130.919C132.625 130.919 133.518 131.218 134.249 131.771C134.98 132.323 135.51 133.099 135.758 133.979L135.929 134.585L136.48 134.282C137.295 133.835 138.133 133.432 138.991 133.074L138.991 133.074L138.994 133.072C142.31 131.658 145.88 130.927 149.487 130.926C153.736 130.933 157.869 132.313 161.265 134.859C164.631 137.383 167.094 140.918 168.291 144.941C168.291 144.942 168.29 144.944 168.289 144.946C168.274 144.976 168.245 145.019 168.195 145.072C168.093 145.18 167.942 145.292 167.766 145.398C167.594 145.501 167.419 145.587 167.285 145.647C167.27 145.654 167.255 145.66 167.241 145.666C166.827 145.489 166.457 145.221 166.158 144.883L165.675 144.334L165.339 144.984C165.293 145.073 165.198 145.185 165.046 145.31C164.899 145.432 164.723 145.547 164.546 145.647C164.372 145.746 164.206 145.827 164.083 145.882C164.078 145.885 164.073 145.887 164.068 145.889C164.061 145.886 164.055 145.884 164.048 145.881C163.923 145.826 163.754 145.747 163.576 145.648C163.397 145.548 163.221 145.433 163.075 145.31C162.925 145.184 162.835 145.071 162.794 144.982L162.492 144.327L161.984 144.84C161.539 145.289 161.01 145.646 160.427 145.891C159.918 145.673 159.445 145.378 159.025 145.016L158.693 144.731L158.367 145.022C157.864 145.469 157.291 145.832 156.672 146.095C156.009 145.816 155.404 145.415 154.888 144.913L154.529 144.565L154.181 144.923C153.594 145.525 152.889 146.002 152.112 146.323C151.334 146.002 150.63 145.525 150.043 144.923L149.664 144.534L149.307 144.943C148.768 145.563 148.131 146.089 147.421 146.501C146.546 146.262 145.728 145.852 145.014 145.293L144.398 144.812L144.219 145.572C144.105 146.054 143.717 146.628 143.303 147.119C143.103 147.356 142.911 147.557 142.769 147.699C142.738 147.731 142.708 147.76 142.682 147.785C142.639 147.784 142.59 147.782 142.536 147.78C142.32 147.769 142.024 147.748 141.7 147.703C141.022 147.61 140.335 147.43 139.956 147.131L139.347 146.65L139.161 147.404C138.949 148.262 138.571 149.071 138.049 149.784C137.166 149.93 136.261 149.9 135.388 149.697L134.751 149.548L134.775 150.202C134.808 151.124 134.646 152.042 134.299 152.896C133.51 153.23 132.666 153.421 131.809 153.459L131.534 153.472L131.413 153.683C131.408 153.688 131.403 153.694 131.398 153.7C131.384 153.716 131.349 153.755 131.318 153.807C131.287 153.859 131.236 153.961 131.236 154.097V154.161L131.252 154.223C131.468 155.061 131.526 155.933 131.421 156.791C130.772 157.298 130.043 157.693 129.263 157.961L128.682 158.16L128.995 158.689C129.464 159.479 129.76 160.359 129.866 161.27C129.31 161.983 128.615 162.578 127.823 163.018L127.136 163.4L127.773 163.861C128.174 164.151 128.556 164.732 128.851 165.309C128.993 165.586 129.105 165.842 129.182 166.029C129.201 166.073 129.217 166.113 129.231 166.149C128.868 166.971 128.343 167.714 127.687 168.331L127.2 168.788L127.776 169.127C128.566 169.59 129.25 170.213 129.785 170.953C129.779 170.988 129.772 171.028 129.764 171.072C129.729 171.266 129.673 171.535 129.593 171.83C129.428 172.443 129.181 173.085 128.852 173.46ZM131.425 153.67L131.424 153.67L131.425 153.67Z" stroke="#B2947B"/>
<path d="M230.421 149.556C231.576 148.995 232.198 146.466 232.198 146.466C232.198 146.466 230.977 144.185 229.719 143.922C230.582 142.982 230.326 140.453 230.326 140.453C230.326 140.453 228.776 139.047 227.54 138.879C228.052 137.728 227.146 135.439 227.146 135.439C227.146 135.439 224.791 134.302 223.636 134.798C224.155 133.581 222.335 131.3 222.335 131.3C222.335 131.3 219.82 130.884 218.826 131.679C218.614 130.432 216.596 129.026 216.596 129.026C216.596 129.026 214.147 129.324 213.372 130.33C212.926 129.142 210.674 128.144 210.674 128.144C210.674 128.144 208.122 128.967 207.698 130.184C207.194 129.026 204.891 128.144 204.891 128.144C204.891 128.144 202.486 129.062 202.047 130.257C201.744 129.297 201.137 128.46 200.317 127.873C199.497 127.286 198.507 126.98 197.498 127.001C196.488 127.022 195.512 127.37 194.718 127.991C193.923 128.613 193.352 129.474 193.091 130.447H171.238C171.238 129.938 171.036 129.451 170.675 129.091C170.314 128.732 169.825 128.53 169.315 128.53C168.805 128.53 168.316 128.732 167.956 129.091C167.595 129.451 167.393 129.938 167.393 130.447C167.389 133.03 167.997 135.577 169.169 137.881C169.672 138.887 170.379 139.778 171.246 140.497C171.994 139.867 172.627 139.112 173.117 138.267C173.609 139.114 174.244 139.868 174.996 140.497C175.737 139.866 176.363 139.111 176.846 138.267C177.337 139.114 177.973 139.868 178.725 140.497C179.475 139.869 180.109 139.114 180.596 138.267C181.088 139.114 181.724 139.868 182.475 140.497C183.227 139.868 183.863 139.114 184.354 138.267C184.846 139.114 185.481 139.868 186.233 140.497C186.984 139.869 187.617 139.114 188.105 138.267C188.603 139.115 189.246 139.87 190.006 140.497C190.722 139.897 191.335 139.182 191.819 138.384C192.215 138.573 192.534 138.893 192.723 139.288C192.912 139.684 192.959 140.132 192.856 140.559C192.753 140.985 192.507 141.363 192.159 141.63C191.811 141.898 191.381 142.038 190.941 142.028H172.145C173.677 143.579 175.504 144.81 177.518 145.649C179.533 146.489 181.695 146.92 183.879 146.918H206.653C208.621 146.921 210.525 146.221 212.019 144.943H212.063C212.028 146.089 211.7 147.207 211.108 148.191C210.517 149.175 209.683 149.991 208.685 150.562C208.955 150.612 209.229 150.636 209.504 150.635H214.622C215.619 150.635 216.59 150.319 217.395 149.734C218.2 149.148 218.799 148.323 219.103 147.377C221.647 149.205 223.436 151.894 224.136 154.942C224.836 157.989 224.398 161.186 222.905 163.935C223.965 164.81 226.678 163.279 226.678 163.279C227.018 162.282 227.133 161.222 227.014 160.175C228.279 160.175 230.055 158.593 230.055 158.593C230.055 158.593 230.311 156.057 229.449 155.124C230.713 154.906 232.015 152.639 232.015 152.639C232.015 152.639 231.496 150.227 230.421 149.556ZM197.587 133.224C197.279 133.224 196.978 133.133 196.722 132.962C196.466 132.791 196.266 132.549 196.148 132.265C196.031 131.982 196 131.669 196.06 131.368C196.12 131.067 196.268 130.791 196.486 130.574C196.704 130.356 196.981 130.209 197.283 130.149C197.585 130.089 197.899 130.12 198.183 130.237C198.468 130.355 198.711 130.553 198.882 130.809C199.053 131.064 199.144 131.364 199.144 131.671C199.144 132.083 198.98 132.478 198.688 132.769C198.396 133.06 198 133.224 197.587 133.224Z" fill="#B2947B"/>
<path d="M149.475 185.545C150.873 186.559 152.563 187.108 154.303 187.104H177.121C179.305 187.106 181.467 186.675 183.482 185.835C185.275 185.088 186.919 184.031 188.339 182.714L149.475 185.545ZM149.475 185.545C149.451 185.388 149.433 185.229 149.421 185.07L148.923 185.107L148.595 185.485C148.732 185.603 148.872 185.717 149.016 185.826C149.17 186.664 149.483 187.466 149.94 188.191C150.385 188.898 150.958 189.514 151.627 190.01C151.573 190.013 151.519 190.014 151.465 190.015L149.475 185.545ZM193.108 170.647V170.957L193.134 170.97C193.09 173.366 192.503 175.722 191.415 177.862L191.413 177.865C191.005 178.681 190.453 179.417 189.786 180.038C189.22 179.507 188.734 178.896 188.345 178.224L187.913 177.478L187.48 178.224C187.089 178.897 186.602 179.508 186.033 180.038C185.465 179.508 184.977 178.897 184.587 178.224L184.157 177.483L183.723 178.222C183.327 178.897 182.832 179.51 182.256 180.04C181.688 179.51 181.203 178.899 180.815 178.225L180.384 177.476L179.949 178.224C179.559 178.897 179.071 179.508 178.503 180.038C177.935 179.508 177.447 178.897 177.056 178.224L176.624 177.479L176.192 178.224C175.801 178.897 175.314 179.508 174.745 180.038C174.179 179.509 173.694 178.898 173.307 178.225L172.875 177.476L172.441 178.224C172.051 178.896 171.563 179.507 170.995 180.037C170.454 179.53 169.985 178.949 169.603 178.312L169.369 177.922L168.958 178.119C168.459 178.358 168.057 178.76 167.819 179.259C167.581 179.758 167.521 180.324 167.651 180.862C167.78 181.399 168.09 181.876 168.529 182.213C168.967 182.548 169.506 182.725 170.057 182.714H187.59C186.31 183.821 184.859 184.72 183.289 185.374C181.336 186.188 179.239 186.606 177.122 186.604H177.121H154.303H154.302C152.446 186.608 150.651 185.942 149.25 184.729L148.334 183.936L148.424 185.144C148.512 186.321 148.887 187.458 149.517 188.457C149.883 189.038 150.329 189.562 150.839 190.015H146.349C145.797 190.015 145.25 189.906 144.739 189.695C144.229 189.484 143.766 189.175 143.376 188.786C142.986 188.396 142.676 187.934 142.466 187.425C142.255 186.917 142.147 186.372 142.148 185.822V185.821V183.416V183.094L141.855 182.961C138.991 181.658 136.515 179.636 134.669 177.094C132.823 174.553 131.669 171.577 131.321 168.459C130.972 165.34 131.441 162.185 132.681 159.3C133.635 157.083 135.019 155.085 136.746 153.416C136.236 154.891 135.986 156.45 136.015 158.021C136.058 160.345 136.707 162.618 137.9 164.615C139.092 166.612 140.786 168.265 142.814 169.41C144.842 170.556 147.134 171.154 149.464 171.147C149.465 171.147 149.465 171.147 149.465 171.147L156.504 171.147H157.601H158.083H158.902H159.285L159.385 170.778C159.623 169.896 160.147 169.116 160.875 168.56C161.603 168.003 162.495 167.702 163.413 167.702C164.331 167.702 165.223 168.003 165.951 168.56C166.679 169.116 167.203 169.896 167.441 170.778L167.541 171.147H167.924H189.762H190.262V170.647C190.262 170.272 190.411 169.912 190.678 169.646C190.945 169.38 191.307 169.231 191.685 169.231C192.063 169.231 192.425 169.38 192.691 169.646C192.958 169.912 193.108 170.272 193.108 170.647ZM188.141 182.214H170.051H188.141ZM162.271 173.586C162.609 173.811 163.006 173.931 163.413 173.931C163.683 173.931 163.95 173.878 164.2 173.775C164.449 173.672 164.676 173.521 164.867 173.331C165.058 173.14 165.21 172.914 165.313 172.665C165.417 172.416 165.47 172.149 165.47 171.879C165.47 171.473 165.349 171.076 165.123 170.738C164.897 170.401 164.576 170.138 164.2 169.983C163.824 169.828 163.411 169.787 163.012 169.866C162.613 169.945 162.247 170.14 161.959 170.427C161.671 170.714 161.475 171.08 161.395 171.478C161.316 171.877 161.357 172.29 161.513 172.665C161.668 173.04 161.932 173.361 162.271 173.586Z" stroke="#B2947B"/>
<path d="M144.22 260.2L136.434 284H130.518L125.282 267.884L119.876 284H113.994L106.174 260.2H111.886L117.258 276.928L122.868 260.2H127.968L133.408 277.064L138.95 260.2H144.22ZM162.172 278.9H151.122L149.014 284H143.37L153.978 260.2H159.418L170.06 284H164.28L162.172 278.9ZM160.438 274.718L156.664 265.606L152.89 274.718H160.438ZM172.529 260.2H178.037V279.512H189.971V284H172.529V260.2ZM193.049 260.2H198.557V279.512H210.491V284H193.049V260.2ZM231.996 279.58V284H213.568V260.2H231.554V264.62H219.042V269.788H230.092V274.072H219.042V279.58H231.996ZM241.309 264.688H233.693V260.2H254.433V264.688H246.817V284H241.309V264.688Z" fill="#B2947B"/>
<defs>
<filter id="filter0_d" x="-10" y="-5" width="380" height="660" filterUnits="userSpaceOnUse" color-interpolation-filters="sRGB">
<feFlood flood-opacity="0" result="BackgroundImageFix"/>
<feColorMatrix in="SourceAlpha" type="matrix" values="0 0 0 0 0 0 0 0 0 0 0 0 0 0 0 0 0 0 127 0"/>
<feOffset dy="5"/>
<feGaussianBlur stdDeviation="5"/>
<feColorMatrix type="matrix" values="0 0 0 0 0.0117647 0 0 0 0 0.243137 0 0 0 0 0.643137 0 0 0 0.19 0"/>
<feBlend mode="normal" in2="BackgroundImageFix" result="effect1_dropShadow"/>
<feBlend mode="normal" in="SourceGraphic" in2="effect1_dropShadow" result="shape"/>
</filter>
</defs>
</svg>
