<svg width="30" height="24" viewBox="0 0 30 24" fill="none" xmlns="http://www.w3.org/2000/svg">
<rect x="0.855713" y="3.55371" width="22.1491" height="1.30289" rx="0.651445" fill="url(#paint0_linear)"/>
<path d="M26.681 6.3587C26.3046 6.65965 25.8533 6.8586 25.3711 6.93146C24.7219 7.02954 24.0591 6.89277 23.5018 6.54577C22.9445 6.19876 22.5293 5.66429 22.3309 5.03849C22.1325 4.41268 22.1639 3.73662 22.4194 3.1319C22.675 2.52717 23.1379 2.03348 23.725 1.73961C24.312 1.44574 24.9847 1.37099 25.6219 1.52879C26.2592 1.6866 26.8192 2.06661 27.2013 2.60047C27.4852 2.99711 27.657 3.45935 27.7035 3.93903L27.3461 3.90833C27.3221 3.76982 27.2891 3.60779 27.245 3.44635C27.1881 3.23804 27.0994 2.97847 26.955 2.77675C26.6149 2.30154 26.1164 1.96327 25.5491 1.8228C24.9819 1.68233 24.3831 1.74887 23.8605 2.01046C23.338 2.27205 22.9259 2.71151 22.6984 3.2498C22.4709 3.78809 22.443 4.38989 22.6196 4.94694C22.7962 5.504 23.1658 5.97976 23.6619 6.28864C24.158 6.59753 24.748 6.71927 25.3258 6.63197C25.7364 6.56993 26.1218 6.40521 26.4477 6.15658L26.681 6.3587Z" stroke="url(#paint1_linear)"/>
<rect x="0.855713" y="19.1885" width="22.1491" height="1.30289" rx="0.651445" fill="url(#paint2_linear)"/>
<path d="M26.681 21.9935C26.3046 22.2944 25.8533 22.4934 25.3711 22.5662C24.7219 22.6643 24.0591 22.5275 23.5018 22.1805C22.9445 21.8335 22.5293 21.2991 22.3309 20.6733C22.1325 20.0474 22.1639 19.3714 22.4194 18.7667C22.675 18.1619 23.1379 17.6682 23.725 17.3744C24.312 17.0805 24.9847 17.0058 25.6219 17.1636C26.2592 17.3214 26.8192 17.7014 27.2013 18.2352C27.4852 18.6319 27.657 19.0941 27.7035 19.5738L27.3461 19.5431C27.3221 19.4046 27.2891 19.2426 27.245 19.0811C27.1881 18.8728 27.0994 18.6132 26.955 18.4115C26.6149 17.9363 26.1164 17.598 25.5491 17.4576C24.9819 17.3171 24.3831 17.3836 23.8605 17.6452C23.338 17.9068 22.9259 18.3463 22.6984 18.8846C22.4709 19.4229 22.443 20.0247 22.6196 20.5817C22.7962 21.1388 23.1658 21.6145 23.6619 21.9234C24.158 22.2323 24.748 22.354 25.3258 22.2667C25.7365 22.2047 26.1218 22.04 26.4477 21.7913L26.681 21.9935Z" stroke="url(#paint3_linear)"/>
<path d="M29.0464 12.1651C29.0464 11.8053 28.7547 11.5137 28.3949 11.5137H7.65226C7.32933 11.5137 7.05514 11.7503 7.00784 12.0697V12.0697C6.94958 12.4632 7.25449 12.8166 7.65226 12.8166H28.3949C28.7547 12.8166 29.0464 12.5249 29.0464 12.1651V12.1651Z" fill="url(#paint4_linear)"/>
<path d="M7.80731 11.9518C7.76913 11.4714 7.60538 11.0063 7.32843 10.6048C6.95568 10.0643 6.40233 9.67465 5.76792 9.50579C5.1335 9.33694 4.45965 9.39999 3.86757 9.68362C3.2755 9.96724 2.80405 10.4528 2.53803 11.053C2.27201 11.6532 2.22887 12.3286 2.41638 12.9578C2.60389 13.5869 3.00974 14.1285 3.56092 14.4852C4.11211 14.8418 4.77247 14.9901 5.42321 14.9033C5.90669 14.8388 6.3613 14.6477 6.74289 14.3534L6.47592 14.1138C6.35845 14.1911 6.21772 14.2779 6.06984 14.3562C5.87903 14.4573 5.62905 14.5703 5.38317 14.6031C4.80391 14.6803 4.2161 14.5483 3.72547 14.2309C3.23483 13.9134 2.87356 13.4313 2.70665 12.8713C2.53974 12.3112 2.57814 11.71 2.81494 11.1757C3.05173 10.6415 3.47139 10.2092 3.99843 9.95678C4.52546 9.70432 5.12529 9.64819 5.69001 9.79849C6.25474 9.9488 6.7473 10.2957 7.0791 10.7767C7.3149 11.1186 7.45851 11.5123 7.5003 11.9201L7.80731 11.9518Z" stroke="url(#paint5_linear)"/>
<defs>
<linearGradient id="paint0_linear" x1="11.9303" y1="2.84897" x2="11.9303" y2="5.83969" gradientUnits="userSpaceOnUse">
<stop stop-color="#191C2D"/>
<stop offset="1" stop-color="#2B73A5"/>
</linearGradient>
<linearGradient id="paint1_linear" x1="27.3202" y1="-2.15178" x2="21.9836" y2="11.8172" gradientUnits="userSpaceOnUse">
<stop stop-color="#191C2D"/>
<stop offset="1" stop-color="#2B73A5"/>
</linearGradient>
<linearGradient id="paint2_linear" x1="11.9303" y1="18.4837" x2="11.9303" y2="21.4745" gradientUnits="userSpaceOnUse">
<stop stop-color="#191C2D"/>
<stop offset="1" stop-color="#2B73A5"/>
</linearGradient>
<linearGradient id="paint3_linear" x1="27.3202" y1="13.483" x2="21.9836" y2="27.452" gradientUnits="userSpaceOnUse">
<stop stop-color="#191C2D"/>
<stop offset="1" stop-color="#2B73A5"/>
</linearGradient>
<linearGradient id="paint4_linear" x1="17.9718" y1="10.8089" x2="17.9718" y2="13.7997" gradientUnits="userSpaceOnUse">
<stop stop-color="#191C2D"/>
<stop offset="1" stop-color="#2B73A5"/>
</linearGradient>
<linearGradient id="paint5_linear" x1="2.03961" y1="18.2423" x2="8.57245" y2="4.79119" gradientUnits="userSpaceOnUse">
<stop stop-color="#191C2D"/>
<stop offset="1" stop-color="#2B73A5"/>
</linearGradient>
</defs>
</svg>
